# xmcd
#
# Track frame offsets:
#	187
#	3117
#	18852
#	27192
#	43375
#	46932
#	70737
#	73400
#	94010
#	97225
#	113650
#	130867
#
# Disc length: 1785 seconds
#
# Revision: 1
# Processed by: cddbd v1.5.1PL0 Copyright (c) Steve Scherf et al.
# Submitted via: CDex 1.50Beta5
#
DISCID=9c06f70c
DTITLE=飯島愛 - なんてったって飯島愛
DYEAR=1993
DGENRE=Pop
TTITLE0=Message from Ai
TTITLE1=どうなったってX’mas
TTITLE2=Message from Ai
TTITLE3=素直になれず
TTITLE4=Message from Ai
TTITLE5=ナイショDEアイ!アイ!
TTITLE6=Message from Ai
TTITLE7=KITTO
TTITLE8=Message from Ai
TTITLE9=あの娘はハデ好き
TTITLE10=“愛”のクリスマス・メモリー
TTITLE11=Message from Ai
EXTD=
EXTT0=
EXTT1=
EXTT2=
EXTT3=
EXTT4=
EXTT5=
EXTT6=
EXTT7=
EXTT8=
EXTT9=
EXTT10=
EXTT11=
PLAYORDER=
